<svg xmlns="http://www.w3.org/2000/svg" width="41.852" height="41.153" viewBox="0 0 41.852 41.153">
    <defs>
        <clipPath id="clip-path">
            <path id="Rectangle_2672" fill="none" d="M0 0H41.852V41.153H0z"/>
        </clipPath>
        <style>
            .cls-4{fill:none;stroke:#0f2d40;stroke-miterlimit:10;stroke-width:1.865px}.cls-5{fill:#0d2d40}.cls-7{fill:#f99300}
        </style>
    </defs>
    <g id="Group_3162">
        <path id="Path_22788" fill="#259d70" d="M31.638 33.508H17.687v15.345h27.9V33.508z" transform="translate(-4.434 -8.399)"/>
        <g id="Group_3161">
            <g id="Group_3160" clip-path="url(#clip-path)">
                <path id="Path_22789" d="M31.638 33.509h-13.95v15.345h27.9V33.509z" class="cls-4" transform="translate(-4.434 -8.4)"/>
                <path id="Path_22790" d="M42.8 25.343V3.722A2.79 2.79 0 0 0 40.009.931H23.271a2.79 2.79 0 0 0-2.791 2.791v21.621z" class="cls-5" transform="translate(-5.134 -.234)"/>
                <path id="Path_22791" fill="#fff" d="M40.709 3.724h-3.488a.7.7 0 0 0-.7.7 1.4 1.4 0 0 1-1.395 1.395h-5.58a1.406 1.406 0 0 1-1.4-1.395.7.7 0 0 0-.7-.7h-3.477a.7.7 0 0 0-.7.7v21.619h18.137V4.422a.7.7 0 0 0-.7-.7" transform="translate(-5.833 -.934)"/>
                <path id="Path_22792" d="M37.7 43.048a2.093 2.093 0 1 1-2.1-2.093 2.092 2.092 0 0 1 2.1 2.093" class="cls-7" transform="translate(-8.4 -10.266)"/>
                <path id="Path_22793" d="M24.647 10.7a1.4 1.4 0 0 0-1.395-1.4H2.328a1.4 1.4 0 0 0-1.395 1.4v1.4h23.714z" class="cls-7" transform="translate(-.234 -2.333)"/>
                <path id="Path_22794" d="M24.647 10.7a1.4 1.4 0 0 0-1.395-1.4H2.328a1.4 1.4 0 0 0-1.395 1.4v1.4h23.714z" class="cls-4" transform="translate(-.234 -2.333)"/>
                <path id="Path_22795" d="M24.647 16.755v8.369a1.4 1.4 0 0 1-1.395 1.4H2.328a1.4 1.4 0 0 1-1.395-1.4v-8.369z" class="cls-7" transform="translate(-.234 -4.2)"/>
                <path id="Path_22796" d="M24.647 16.755v8.369a1.4 1.4 0 0 1-1.395 1.4H2.328a1.4 1.4 0 0 1-1.395-1.4v-8.369z" class="cls-4" transform="translate(-.234 -4.2)"/>
                <path id="Rectangle_2669" fill="#037" d="M0 0H23.714V2.791H0z" transform="translate(.699 9.765)"/>
                <path id="Path_22797" fill="#de1b1f" d="M7.446 23.735a1.395 1.395 0 1 1-1.395-1.395 1.394 1.394 0 0 1 1.395 1.395" transform="translate(-1.167 -5.6)"/>
                <path id="Path_22798" fill="#f37e00" d="M11.17 23.735a1.4 1.4 0 1 1-1.4-1.395 1.395 1.395 0 0 1 1.4 1.395" transform="translate(-2.1 -5.6)"/>
                <path id="Path_22799" d="M38.364 24.412V3.487A3.491 3.491 0 0 0 34.876 0H18.137a3.491 3.491 0 0 0-3.487 3.487v2.789H2.094A2.093 2.093 0 0 0 0 8.369v12.555a2.092 2.092 0 0 0 2.092 2.093h12.557v1.4h-2.093v16.74h29.3V24.412zM16.044 3.487a2.093 2.093 0 0 1 2.093-2.093h16.739a2.093 2.093 0 0 1 2.093 2.093v20.925h-.7V3.487a1.4 1.4 0 0 0-1.4-1.4h-3.48a1.4 1.4 0 0 0-1.395 1.4.7.7 0 0 1-.7.7h-5.58a.679.679 0 0 1-.5-.214.664.664 0 0 1-.2-.483 1.4 1.4 0 0 0-1.4-1.4h-3.477a1.4 1.4 0 0 0-1.4 1.4v2.786h-.7zm6.976 19.529a2.092 2.092 0 0 0 2.092-2.093V8.369a2.093 2.093 0 0 0-2.092-2.093h-4.883V4.7a1.211 1.211 0 0 1 1.212-1.212h1.3a1.26 1.26 0 0 1 1.141.812 2.1 2.1 0 0 0 1.927 1.28H29.3a2.094 2.094 0 0 0 1.925-1.28 1.26 1.26 0 0 1 1.145-.815h1.295A1.211 1.211 0 0 1 34.876 4.7v19.712H18.137v-1.4zm.7-11.159H1.4v-1.4h22.32zM1.4 8.369a.7.7 0 0 1 .7-.7h20.919a.7.7 0 0 1 .7.7v.7H1.4zm0 12.554v-7.671h22.317v7.672a.7.7 0 0 1-.7.7H2.094a.7.7 0 0 1-.7-.7m14.647 2.093h.7v1.395h-.7zm24.415 16.739h-26.5v-13.95h26.5z" class="cls-5" transform="translate(-.001)"/>
                <path id="Path_22800" d="M24.124 46.783v.608h17.033v-.608a1.826 1.826 0 0 1 1.825-1.825h.608v-6.084h-.608a1.825 1.825 0 0 1-1.825-1.825v-.608H24.124v.608a1.825 1.825 0 0 1-1.824 1.825h-.608v6.083h.608a1.826 1.826 0 0 1 1.825 1.825m-1.218-6.752a3.05 3.05 0 0 0 2.373-2.372H40a3.052 3.052 0 0 0 2.373 2.372v3.77A3.052 3.052 0 0 0 40 46.174H25.28a3.05 3.05 0 0 0-2.373-2.374z" class="cls-5" transform="translate(-5.437 -9.135)"/>
                <path id="Path_22801" d="M35.37 45.6a2.79 2.79 0 1 0-2.79-2.79 2.79 2.79 0 0 0 2.79 2.79m0-4.184a1.395 1.395 0 1 1-1.395 1.395 1.395 1.395 0 0 1 1.395-1.391" class="cls-5" transform="translate(-8.167 -10.033)"/>
                <path id="Rectangle_2670" d="M0 0H2.791V1.395H0z" class="cls-5" transform="translate(31.388 32.084)"/>
                <path id="Rectangle_2671" d="M0 0H2.791V1.395H0z" class="cls-5" transform="translate(20.228 32.084)"/>
                <path id="Path_22802" d="M8.6 21.408a2.081 2.081 0 0 0-1.395.545 2.092 2.092 0 1 0 0 3.1A2.093 2.093 0 1 0 8.6 21.408M5.813 24.2a.7.7 0 1 1 .7-.7.7.7 0 0 1-.7.7m2.79 0a.7.7 0 1 1 .7-.7.7.7 0 0 1-.7.7" class="cls-5" transform="translate(-.93 -5.366)"/>
            </g>
        </g>
    </g>
</svg>
