<svg xmlns="http://www.w3.org/2000/svg" width="39.579" height="38.846" viewBox="0 0 39.579 38.846">
    <defs>
        <clipPath id="clip-path">
            <path id="Rectangle_2668" fill="none" d="M0 0H39.579V38.846H0z"/>
        </clipPath>
        <style>
            .cls-4{fill:#f0f0f0}.cls-7{fill:#102c40}
        </style>
    </defs>
    <g id="Group_3159">
        <g id="Group_3158" clip-path="url(#clip-path)">
            <path id="Path_22779" fill="#129b70" d="M18.731 9.935c0 6.6-8.8 13.193-8.8 13.193s-8.8-6.6-8.8-13.193a8.8 8.8 0 1 1 17.59 0" transform="translate(-.408 -.407)"/>
            <path id="Path_22780" d="M49.848 50.012a4.4 4.4 0 1 1-4.4-4.4 4.4 4.4 0 0 1 4.4 4.4" class="cls-4" transform="translate(-14.666 -16.296)"/>
            <path id="Path_22781" d="M17.918 50.012a4.4 4.4 0 1 1-4.4-4.4 4.4 4.4 0 0 1 4.4 4.4" class="cls-4" transform="translate(-3.259 -16.296)"/>
            <path id="Path_22782" d="M53.08 33.532a1.467 1.467 0 0 1 .432 1.041v.857H41.785a.733.733 0 0 1-.733-.733V28.1a.733.733 0 0 1 .733-.733h5.13z" class="cls-4" transform="translate(-14.666 -9.777)"/>
            <path id="Path_22783" fill="#037" d="M40.067 33.8v6.6a1.469 1.469 0 0 1-1.467 1.463h-2.2a4.4 4.4 0 0 0-8.8 0H15.881a4.4 4.4 0 0 0-8.8 0h-2.2A1.471 1.471 0 0 1 3.42 40.4v-5.866a.734.734 0 0 1 .733-.733h17.59V23.54a.733.733 0 0 1 .733-.733h7.454a1.472 1.472 0 0 1 1.041.432l2.5 2.5h-5.13a.733.733 0 0 0-.733.733v6.6a.733.733 0 0 0 .733.733z" transform="translate(-1.222 -8.148)"/>
            <path id="Path_22784" fill="#f99300" d="M16.452 12.787a3.665 3.665 0 1 1-3.664-3.664 3.665 3.665 0 0 1 3.664 3.664" transform="translate(-3.259 -3.259)"/>
            <path id="Rectangle_2665" d="M0 0H1.465V1.466H0z" class="cls-7" transform="translate(9.529 32.983)"/>
            <path id="Rectangle_2666" d="M0 0H1.465V1.466H0z" class="cls-7" transform="translate(30.051 32.983)"/>
            <path id="Path_22785" d="M39.75 30.981l-8.668-8.669a2.189 2.189 0 0 0-1.557-.645H22.07a1.465 1.465 0 0 0-1.47 1.466v9.528H3.746a1.466 1.466 0 0 0-1.465 1.466v5.864a2.2 2.2 0 0 0 2.2 2.2H6a5.12 5.12 0 0 0 1.487 2.932H2.281v1.465H31.6a5.13 5.13 0 0 0 5.072-4.4H38.2a2.2 2.2 0 0 0 2.2-2.2v-7.452a2.183 2.183 0 0 0-.644-1.555m-.821 1.555v.125H27.934v-6.6h4.828l5.952 5.952a.733.733 0 0 1 .215.519M7.411 41.457a3.664 3.664 0 1 1 3.665 3.665 3.664 3.664 0 0 1-3.665-3.665m7.249 3.665a5.117 5.117 0 0 0 1.488-2.932h10.379a5.115 5.115 0 0 0 1.488 2.932zm16.939 0a3.665 3.665 0 1 1 3.664-3.665 3.664 3.664 0 0 1-3.663 3.665m6.6-4.4h-1.529a5.124 5.124 0 0 0-10.144 0H16.148A5.124 5.124 0 0 0 6 40.723H4.48a.733.733 0 0 1-.733-.733v-5.863h17.59a.733.733 0 0 0 .733-.733V23.133h7.454a.73.73 0 0 1 .52.216L31.3 24.6h-3.366a1.466 1.466 0 0 0-1.466 1.466v6.6a1.466 1.466 0 0 0 1.466 1.466h10.994v5.864a.733.733 0 0 1-.733.733" class="cls-7" transform="translate(-.815 -7.741)"/>
            <path id="Rectangle_2667" d="M0 0H2.932V1.466H0z" class="cls-7" transform="translate(23.454 27.852)"/>
            <path id="Path_22786" d="M0 9.529c0 6.884 8.717 13.5 9.088 13.78a.737.737 0 0 0 .881 0c.37-.278 9.088-6.9 9.088-13.78A9.528 9.528 0 0 0 0 9.529m9.529-8.063a8.073 8.073 0 0 1 8.062 8.062c0 5.329-6.321 10.841-8.062 12.259-1.744-1.416-8.063-6.921-8.063-12.258a8.072 8.072 0 0 1 8.063-8.063" class="cls-7"/>
            <path id="Path_22787" d="M12.38 16.777a4.4 4.4 0 1 0-4.4-4.4 4.395 4.395 0 0 0 4.4 4.4m0-7.329a2.932 2.932 0 1 1-2.932 2.932 2.931 2.931 0 0 1 2.932-2.932" class="cls-7" transform="translate(-2.852 -2.852)"/>
        </g>
    </g>
</svg>
