<svg xmlns="http://www.w3.org/2000/svg" width="25.441" height="17.637" viewBox="0 0 25.441 17.637">
  <g id="Group_1709" data-name="Group 1709" transform="translate(0 -78.521)">
    <path id="Path_20983" data-name="Path 20983" d="M68.716,87.276l-1.5-1.925h0l-2.405-4.783a.8.8,0,0,0-.716-.441H60.68v-.8a.8.8,0,0,0-.8-.8H46.517a.8.8,0,1,0,0,1.6h12.56v5.612a.8.8,0,0,0,.8.8h6.235l1.168,1.5v4.135H65.769a3.207,3.207,0,0,0-6.223,0H54.813a3.207,3.207,0,0,0-6.223,0H46.517a.8.8,0,1,0,0,1.6H48.6a3.207,3.207,0,0,0,6.2,0H59.56a3.207,3.207,0,0,0,6.2,0h2.327a.8.8,0,0,0,.8-.8V87.767A.8.8,0,0,0,68.716,87.276ZM60.68,81.728h2.926l1.612,3.207H60.68ZM51.7,94.555a1.6,1.6,0,1,1,1.6-1.6A1.605,1.605,0,0,1,51.7,94.555Zm10.957,0a1.6,1.6,0,1,1,1.6-1.6A1.605,1.605,0,0,1,62.658,94.555Z" transform="translate(-43.443)" fill="#00b48d"/>
    <path id="Path_20984" data-name="Path 20984" d="M31.644,272.4a.8.8,0,0,0-.8-.8H27.155a.8.8,0,1,0,0,1.6h3.688A.8.8,0,0,0,31.644,272.4Z" transform="translate(-25.044 -183.482)" fill="#00b48d"/>
    <path id="Path_20985" data-name="Path 20985" d="M8.445,208.936a.8.8,0,0,0-.8-.8H.8a.8.8,0,0,0,0,1.6H7.643A.8.8,0,0,0,8.445,208.936Z" transform="translate(0 -123.173)" fill="#00b48d"/>
    <path id="Path_20986" data-name="Path 20986" d="M27.155,146.275H34a.8.8,0,0,0,0-1.6H27.155a.8.8,0,1,0,0,1.6Z" transform="translate(-25.044 -62.864)" fill="#00b48d"/>
  </g>
</svg>
