<svg xmlns="http://www.w3.org/2000/svg" width="25.441" height="23.46" viewBox="0 0 25.441 23.46">
  <g id="Group_1714" data-name="Group 1714" transform="translate(0 -11.595)">
    <path id="Path_20987" data-name="Path 20987" d="M141.592,76.9v7.774h4.955V83.3h-3.588V76.9Z" transform="translate(-129.497 -59.724)" fill="#00b48d"/>
    <path id="Path_20988" data-name="Path 20988" d="M26.261,23.407A11.816,11.816,0,0,0,2.794,21.445H.9l3.272,5.638,3.368-5.638H5.576A9.083,9.083,0,1,1,16.418,32.268v2.787A11.856,11.856,0,0,0,26.261,23.407Z" transform="translate(-0.821 0)" fill="#00b48d"/>
    <path id="Path_20989" data-name="Path 20989" d="M2.083,214.687l.869-.924a13.68,13.68,0,0,0,1.163-1.386A1.874,1.874,0,0,0,4.43,211.3a1.8,1.8,0,0,0-.593-1.424,2.423,2.423,0,0,0-1.652-.52,2.136,2.136,0,0,0-1.6.62A2.034,2.034,0,0,0,0,211.5l.009.038H1.465a1.21,1.21,0,0,1,.192-.738.608.608,0,0,1,.527-.291.7.7,0,0,1,.562.218.878.878,0,0,1,.188.59,1.362,1.362,0,0,1-.185.612,4.2,4.2,0,0,1-.563.8L.136,214.9v.992H4.578v-1.2H2.1Z" transform="translate(0 -180.868)" fill="#00b48d"/>
    <path id="Path_20990" data-name="Path 20990" d="M58.285,210.629H56.833V210.6l-2.593,4.15.072.915h2.521v1.367h1.452v-1.367h.683v-1.111h-.683Zm-1.452,3.93H55.556l1.1-1.835.131-.193.043,0Z" transform="translate(-49.607 -182.009)" fill="#00b48d"/>
    <path id="Path_20991" data-name="Path 20991" d="M120.863,216.389v-2.765a4.562,4.562,0,0,0-.018-.569,2.013,2.013,0,0,0-.379-1.033,1.416,1.416,0,0,0-1.16-.516,1.286,1.286,0,0,0-.668.179,1.134,1.134,0,0,0-.509.5V209.9h-1.538v6.492h1.538V212.9c0-.076.143-.136.249-.179a.959.959,0,0,1,.367-.064.6.6,0,0,1,.5.207,1.26,1.26,0,0,1,.163.755v2.774h1.452Z" transform="translate(-106.632 -181.362)" fill="#00b48d"/>
  </g>
</svg>
