<svg xmlns="http://www.w3.org/2000/svg" xmlns:xlink="http://www.w3.org/1999/xlink" width="86" height="21" viewBox="0 0 86 21">
  <defs>
    <clipPath id="clip-AsterOnlineLogo">
      <rect width="86" height="21"/>
    </clipPath>
  </defs>
  <g id="AsterOnlineLogo" clip-path="url(#clip-AsterOnlineLogo)">
    <g id="Group_3413" data-name="Group 3413" transform="translate(8060.5 4509.545)">
      <path id="Path_20864" data-name="Path 20864" d="M194.667,343.806l3.311-9.4h2.3l3.323,9.4v.585h-2.153l-.828-2.539h-3.366l-.8,2.539h-1.785Zm3.052-3.479h2.4l-1.2-3.681h-.028Z" transform="translate(-8255.167 -4838.018)" fill="#003d81"/>
      <path id="Path_20865" data-name="Path 20865" d="M614.051,447.946v-1.539h.656a2.725,2.725,0,0,0,1.84.628c.845,0,1.285-.229,1.285-.7s-.27-.671-1.327-.8c-1.64-.2-2.51-.812-2.51-2.281,0-1.513,1.128-2.354,2.967-2.354a4.883,4.883,0,0,1,2.352.513v1.512h-.625a2.907,2.907,0,0,0-1.711-.5c-.817,0-1.128.242-1.128.669,0,.386.37.586,1.4.715,1.782.228,2.525.814,2.525,2.325,0,1.47-.956,2.424-3.125,2.424a5.03,5.03,0,0,1-2.6-.615" transform="translate(-8665.003 -4942.103)" fill="#003d81"/>
      <path id="Path_20866" data-name="Path 20866" d="M879.81,358.426h.884v-2h2.082v2h1.514v1.4h-1.514v3.838c0,.713.285.912.969.912h.571v1.256a4.106,4.106,0,0,1-1.312.2c-1.44,0-2.31-.571-2.31-2.125v-4.08h-.884Z" transform="translate(-8924.801 -4859.542)" fill="#003d81"/>
      <path id="Path_20867" data-name="Path 20867" d="M1090.653,443.962c.1,1.5.813,1.912,1.969,1.912a3.29,3.29,0,0,0,1.982-.629h.642v1.371a5.462,5.462,0,0,1-2.938.727,3.472,3.472,0,0,1-3.8-3.809,3.588,3.588,0,0,1,3.649-3.894c2.2,0,3.37,1.213,3.37,3.68,0,.257-.03.57-.03.643Zm.029-1.256h2.795c-.041-1.328-.5-1.753-1.314-1.753-.726,0-1.322.355-1.481,1.753" transform="translate(-9128.78 -4940.869)" fill="#003d81"/>
      <path id="Path_20868" data-name="Path 20868" d="M1445.123,443.706v5.406h-2.083v-7.489h1.415c.354,0,.569.156.64.9a2.839,2.839,0,0,1,2.084-.97,1.55,1.55,0,0,1,.457.072v1.641h-.356a4.694,4.694,0,0,0-2.155.442" transform="translate(-9475.283 -4942.739)" fill="#003d81"/>
      <path id="Path_20869" data-name="Path 20869" d="M2515.662,445.09V442.4c0-1.217-.2-1.78-1.6-1.78-.883,0-1.324-.046-1.537.167-.228.259-.167,1.339-.167,1.613v4.138c-.4,0-1.4.076-1.734-.2-.243-.183-.289-.533-.289-1.248v-6.025c1.628,0,1.628,0,1.628.928a3.17,3.17,0,0,1,2.525-1.034c2.647,0,3.18,1.521,3.18,3.56v4.017c-1.871,0-2.009-.061-2.009-1.445" transform="translate(-10518.422 -4940.205)" fill="#129b70"/>
      <path id="Path_20870" data-name="Path 20870" d="M2882.995,325.731v-8.855c.4,0,1.385-.076,1.734.2.229.182.289.532.289,1.247v8.885c-1.886,0-2.023-.076-2.023-1.476" transform="translate(-10882.646 -4820.875)" fill="#129b70"/>
      <path id="Path_20871" data-name="Path 20871" d="M3009.728,312.157c-.73,0-1.4-.228-1.4-1.126,0-.928.639-1.126,1.4-1.126.73,0,1.339.213,1.339,1.126s-.609,1.126-1.339,1.126m-.989,6.771v-5.979a3.717,3.717,0,0,1,1.734.213c.229.182.274.517.274,1.232V320.4c-1.871,0-2.008-.076-2.008-1.476" transform="translate(-11005.142 -4814.073)" fill="#129b70"/>
      <path id="Path_20872" data-name="Path 20872" d="M3175.273,445.09V442.4c0-1.217-.2-1.78-1.6-1.78-.882,0-1.324-.046-1.537.167-.228.259-.167,1.339-.167,1.613v4.138c-.4,0-1.4.076-1.734-.2-.243-.183-.289-.533-.289-1.248v-6.025c1.628,0,1.628,0,1.628.928a3.171,3.171,0,0,1,2.525-1.034c2.647,0,3.179,1.521,3.179,3.56v4.017c-1.871,0-2.008-.061-2.008-1.445" transform="translate(-11163.104 -4940.205)" fill="#129b70"/>
      <path id="Path_20873" data-name="Path 20873" d="M3536.563,443.4H3532.9c0,.943.684,1.552,1.841,1.552h1.643c1.354,0,1.446.091,1.446,1.6H3534.8c-3.119,0-3.941-1.826-3.941-3.773,0-1.963.837-3.819,3.971-3.819,2.4,0,3.59,1.445,3.59,3.256,0,1.324-.167,1.186-1.856,1.186m-1.872-2.875c-1.75,0-1.8,0-1.8,1.613h3.514a1.571,1.571,0,0,0-1.719-1.613" transform="translate(-11515.842 -4940.207)" fill="#129b70"/>
      <g id="Group_1606" data-name="Group 1606" transform="translate(-7976.509 -4501.246)">
        <path id="Path_20874" data-name="Path 20874" d="M3968.773,743.92c0,.2-.052.359-.292.359s-.3-.16-.3-.359.055-.359.3-.359.292.176.292.359" transform="translate(-3966.765 -736.666)" fill="#129b70"/>
        <path id="Path_20875" data-name="Path 20875" d="M3909.3,667.773c0,.819-.467,1.038-.982,1.038a.9.9,0,0,1-.982-1.03v-.6c.088,0,.3-.016.372.056.048.048.06.132.06.315v.24c0,.076-.02.367.048.427s.42.056.5.056c.34,0,.567-.112.567-.487v-.224c0-.359.024-.383.419-.383Z" transform="translate(-3907.287 -662.015)" fill="#129b70"/>
        <path id="Path_20876" data-name="Path 20876" d="M3907.4,575.482a1,1,0,1,1-2.008,0,1,1,0,1,1,2.008,0m-1.007-.5c-.335,0-.571.088-.571.5,0,.5,0,.5.571.5.344,0,.575-.1.575-.5,0-.507,0-.5-.575-.5Z" transform="translate(-3905.389 -571.377)" fill="#129b70"/>
        <path id="Path_20877" data-name="Path 20877" d="M3908.142,439.266c-.024.243-.18.224-.379.224h-.786c-.248,0-.384.048-.384.307,0,.32.012.312.384.312h1.17c0,.1.02.367-.052.459-.048.064-.144.072-.332.072h-.786c-.248,0-.384.048-.384.307,0,.323.012.315.384.315h1.17c0,.1.02.367-.052.455-.048.064-.144.076-.332.076h-1.581c0-.427.008-.427.248-.427a.679.679,0,0,1-.271-.551.557.557,0,0,1,.271-.539.772.772,0,0,1-.271-.611c0-.591.4-.707.842-.707h1.146c0,.168,0,.248,0,.307" transform="translate(-3906.14 -438.959)" fill="#129b70"/>
      </g>
      <g id="Group_1607" data-name="Group 1607" transform="translate(-8025.567 -4508.632)">
        <path id="Path_20878" data-name="Path 20878" d="M1746.155,193.66a8.1,8.1,0,0,0-2.11.275l1.554,1.383c.184-.017.37-.025.556-.025a6.542,6.542,0,0,1,4.739,11.053l.71,1.586a8.176,8.176,0,0,0-5.448-14.273Zm.159,14.717c-.052,0-.107,0-.159,0a6.541,6.541,0,0,1-4.5-11.289l.01-2.088a8.177,8.177,0,0,0,4.49,15.01,8.4,8.4,0,0,0,.871-.045Z" transform="translate(-1737.979 -191.826)" fill="#129b70"/>
        <path id="Path_20879" data-name="Path 20879" d="M1907.7,127.138l.71,1.586a8.19,8.19,0,0,1-1.417,1.018l-.67-1.5-3.038-6.811,2.212-.28-5.1-4.543-.226-.2,0,.3-.032,6.826,1.688-1.457,3.041,6.814.67,1.5a8.282,8.282,0,0,1-1.705.37l-.713-1.591-1.919-4.3-2.785,2.405.045-9.393.01-2.088.015-3.177,2.366,2.11,1.554,1.383,7.025,6.263-3.654.462Z" transform="translate(-1894.787 -112.617)" fill="#f99300"/>
      </g>
    </g>
  </g>
</svg>
