<svg xmlns="http://www.w3.org/2000/svg" width="14.634" height="14.634" viewBox="0 0 14.634 14.634">
  <path id="Path_20946" data-name="Path 20946" d="M14.632,11.792a2.165,2.165,0,0,0-.664-1.487,5.317,5.317,0,0,0-2.1-1.4,2.356,2.356,0,0,0-2.419.686l0,0-.774.768A11.509,11.509,0,0,1,6.231,8.478L6.156,8.4A11.581,11.581,0,0,1,4.272,5.966l.767-.773,0,0a2.356,2.356,0,0,0,.686-2.419,5.316,5.316,0,0,0-1.4-2.1A2.175,2.175,0,0,0,1.311.557L1.295.572,1.272.593A4.638,4.638,0,0,0,0,3.99a10.855,10.855,0,0,0,3.455,7.189l.005.005q.17.17.353.338l0,.012s.16.149.442.381q.273.231.567.456a.574.574,0,0,0,.1.062,11.927,11.927,0,0,0,3.417,1.8l.077.023a7.6,7.6,0,0,0,2.223.372h.032a4.628,4.628,0,0,0,3.365-1.272l.021-.022.015-.016A2.165,2.165,0,0,0,14.632,11.792Z" transform="translate(0 -0.001)" fill="#00b48d"/>
</svg>
