<svg xmlns="http://www.w3.org/2000/svg" width="40.907" height="32.743" viewBox="0 0 40.907 32.743">
    <defs>
        <clipPath id="clip-path">
            <path id="Rectangle_2664" fill="none" d="M0 0H40.907V32.743H0z"/>
        </clipPath>
        <style>
            .cls-3{fill:#fff}.cls-4{fill:#129b70}.cls-5{fill:#102c40}.cls-6{fill:#f99300}
        </style>
    </defs>
    <g id="Group_3157">
        <g id="Group_3156" clip-path="url(#clip-path)">
            <path id="Path_22767" d="M24.6 22.955c0-4.51 5.483-8.164 12.246-8.164S49.1 18.446 49.1 22.955c0 3.972-4.256 7.28-9.892 8.012a14.082 14.082 0 0 0 3.769 6.275s-6.384-1.6-7.859-6.207c-5.944-.561-10.518-3.964-10.518-8.08" class="cls-3" transform="translate(-9.254 -5.563)"/>
            <path id="Path_22768" d="M26.19 9.985c0-.039.007-.077.007-.116C26.2 5.36 20.714 1.7 13.951 1.7S1.7 5.36 1.7 9.869c0 3.972 4.256 7.28 9.892 8.012a14.074 14.074 0 0 1-3.77 6.276s6.385-1.6 7.859-6.207c.1-.01.206-.027.31-.039.088-3.988 4.463-7.283 10.193-7.926" class="cls-3" transform="translate(-.641 -.641)"/>
            <path id="Path_22769" d="M11.925 14.176a1.02 1.02 0 1 1-1.025-1.021 1.021 1.021 0 0 1 1.021 1.021" class="cls-4" transform="translate(-3.717 -4.948)"/>
            <path id="Path_22770" d="M18.468 14.176a1.02 1.02 0 1 1-1.021-1.021 1.021 1.021 0 0 1 1.021 1.021" class="cls-4" transform="translate(-6.178 -4.948)"/>
            <path id="Path_22771" d="M25.01 14.176a1.02 1.02 0 1 1-1.021-1.021 1.021 1.021 0 0 1 1.021 1.021" class="cls-4" transform="translate(-8.639 -4.948)"/>
            <path id="Path_22772" d="M31.554 14.176a1.02 1.02 0 1 1-1.021-1.021 1.021 1.021 0 0 1 1.021 1.021" class="cls-4" transform="translate(-11.1 -4.948)"/>
            <path id="Path_22773" d="M42.334 37.664a1.054 1.054 0 0 1-.259-.032c-.271-.068-6.4-1.651-8.367-6.253-6.3-.815-10.807-4.556-10.807-9.065 0-5.088 5.97-9.228 13.31-9.228s13.31 4.14 13.31 9.228c0 4.136-3.95 7.729-9.56 8.858a13.573 13.573 0 0 0 3.126 4.677 1.063 1.063 0 0 1-.752 1.816m-6.124-22.452c-6.167 0-11.183 3.185-11.183 7.1 0 3.488 4.1 6.507 9.547 7.023a1.063 1.063 0 0 1 .912.734 7.568 7.568 0 0 0 3.5 3.951 13.937 13.937 0 0 1-1.449-3.42 1.062 1.062 0 0 1 .89-1.33c5.2-.674 8.966-3.6 8.966-6.957 0-3.916-5.017-7.1-11.183-7.1" class="cls-5" transform="translate(-8.613 -4.922)"/>
            <path id="Path_22774" d="M7.186 24.578a1.063 1.063 0 0 1-.752-1.816 13.573 13.573 0 0 0 3.126-4.676C3.95 16.957 0 13.364 0 9.227 0 4.14 5.97 0 13.31 0s13.31 4.14 13.31 9.227a1.616 1.616 0 0 1-.009.167 1.04 1.04 0 0 1-.943 1.006c-5.2.584-9.174 3.547-9.248 6.893a1.064 1.064 0 0 1-.573.921c-1.934 4.663-8.127 6.264-8.4 6.333a1.08 1.08 0 0 1-.259.031M13.31 2.127c-6.167 0-11.183 3.185-11.183 7.1 0 3.357 3.771 6.283 8.965 6.958a1.063 1.063 0 0 1 .891 1.33 13.931 13.931 0 0 1-1.444 3.411 7.568 7.568 0 0 0 3.493-3.942 1.067 1.067 0 0 1 .319-.481c.536-3.912 4.583-7.157 10.077-8.076-.6-3.523-5.361-6.3-11.118-6.3" class="cls-5"/>
            <path id="Path_22775" d="M34.825 27.262a1.02 1.02 0 1 1-1.025-1.021 1.021 1.021 0 0 1 1.021 1.021" class="cls-6" transform="translate(-12.33 -9.869)"/>
            <path id="Path_22776" d="M41.368 27.262a1.02 1.02 0 1 1-1.021-1.021 1.021 1.021 0 0 1 1.021 1.021" class="cls-6" transform="translate(-14.791 -9.869)"/>
            <path id="Path_22777" d="M47.911 27.262a1.02 1.02 0 1 1-1.021-1.021 1.021 1.021 0 0 1 1.021 1.021" class="cls-6" transform="translate(-17.252 -9.869)"/>
            <path id="Path_22778" d="M54.454 27.262a1.02 1.02 0 1 1-1.021-1.021 1.021 1.021 0 0 1 1.021 1.021" class="cls-6" transform="translate(-19.713 -9.869)"/>
        </g>
    </g>
</svg>
